<svg width="207" height="289" xmlns="http://www.w3.org/2000/svg">
 <!-- Created with Method Draw - http://github.com/duopixel/Method-Draw/ -->
<!-- <g>-->
<!--  <title>background</title>-->
<!--&lt;!&ndash;  <rect fill="none" id="canvas_background" height="291" width="209" y="-1" x="-1"/>&ndash;&gt;-->
<!--&lt;!&ndash;  <g display="none" overflow="visible" y="0" x="0" height="100%" width="100%" id="canvasGrid">&ndash;&gt;-->
<!--&lt;!&ndash;   <rect fill="url(#gridpattern)" stroke-width="0" y="0" x="0" height="100%" width="100%"/>&ndash;&gt;-->
<!--&lt;!&ndash;  </g>&ndash;&gt;-->
<!-- </g>-->
 <g>
<!--  <title>Layer 1</title>-->
  <path d="m15.25,281.57733c0,-1 1.71411,-2.21167 4,-5c2.68979,-3.28101 3.7265,-4.29361 8,-8c3.77728,-3.276 8.23425,-3.83459 11,-8c2.28067,-3.43491 4.297,-5.61383 7,-8c1.67633,-1.47983 2.31,-2.33749 5,-4c1.203,-0.7435 3.2565,-3.797 4,-5c1.66251,-2.69 3,-4 4,-7c0,0 1,-3 1,-4c0,-1 1.61731,-3.07611 2,-4c0.5412,-1.30655 1,-3 1,-4c0,-1 1,-3 1,-5c0,-3 0,-7 0,-11c0,-3 0,-5 0,-8c0,-4 0,-5 0,-8c0,-3 1.41559,-4.35498 0,-7c-1.70129,-3.17892 -3.10339,-4.90634 -4,-6c-2.28589,-2.78833 -3.07339,-5.93164 -4,-7c-3.276,-3.77728 -4.46448,-4.46448 -8,-8c-3.53552,-3.53552 -4.22272,-4.724 -8,-8c-4.2735,-3.70639 -7.61105,-5.92807 -10,-8c-3.37848,-2.93015 -5.81146,-6.13464 -8,-9c-1.91949,-2.51309 -2.85138,-5.67978 -5,-8c-2.80145,-3.02521 -4.49622,-7.90778 -5,-12c-0.48874,-3.97003 -2.49347,-7.87857 -3,-11c-0.64072,-3.94836 -1,-8 -1,-12c0,-4 0,-8 0,-12c0,-4 1.63416,-8.33646 4,-15c1.95093,-5.4949 4.19577,-9.89172 8,-17c2.1102,-3.94296 2.33197,-8.22937 4,-12c1.45865,-3.29733 1.92807,-4.61105 4,-7c1.46509,-1.68924 3,-3.99998 4,-4.99998c3,-3 4,-4 7,-7c1,-1 1.82108,-3.29869 5,-5c3.5267,-1.88744 6.25577,-1.60083 8,-3c3.21619,-2.57994 8.10699,-1.08099 12,-2c4.35251,-1.02748 7.90778,-2.49623 12,-3c3.97003,-0.48874 7.90778,-0.49623 12,-1c5.95505,-0.73309 12,0 16,0c7,0 12,0 16,0c6,0 10.02521,-0.11867 15,1c4.02264,0.90456 7.133,0.5695 11,2c2.09717,0.7758 6.31,2.33749 9,4c1.203,0.7435 3.41885,2.41885 5,4c1.58115,1.58115 4,3 6,6c2,3 4.41156,6.40401 8,10.99998c3.48129,4.45877 6.85114,7.48532 9,12c1.772,3.7229 2.91873,8.34506 5,13c2.04086,4.56454 4.95914,8.43546 7,13c2.08127,4.65494 -0.13464,9.10828 1,15c1.01837,5.28799 2.50732,10.02432 3,15c0.50244,5.07422 1,10 1,14c0,5 -0.14774,10.94342 -2,16c-1.08768,2.96933 -2,7 -4,11c-2,4 -4,8 -6,11c-2,3 -4,8 -7,11c-3,3 -5.7695,6.39099 -8,10c-1.66251,2.69 -3.08051,5.48691 -5,8c-2.18854,2.86536 -4.61383,4.297 -7,7c-1.47983,1.67633 -3.14429,4.93414 -4,7c-1.21014,2.92157 -1.95517,5.54916 -3,9c-0.86935,2.87128 -1.48627,4.82376 -2,7c-0.68927,2.91974 1.14804,5.22836 0,8c-1.0824,2.61313 -2,5 -2,8c0,3 -0.48056,6.03873 0,9c0.50653,3.12143 0.58441,6.35498 2,9c1.70129,3.17892 4,4 6,6c2,2 4.07611,2.61731 5,3c1.30655,0.5412 0.82376,2.48627 3,3c0.97324,0.22977 2,1 4,1c1,0 1,1 2,1l0,0l2,0" id="svg_12" fill-opacity="null" stroke-opacity="null" stroke-width="14.5" stroke="#000" fill="none"/>
  <path d="m97.25,130.57733c0,1 0,2 0,4c0,1 -0.70709,2.29291 0,3c0.70709,0.70709 2.0535,0.4595 4,0c2.17624,-0.51373 6,-1 12,-1c5,0 10,0 22,0c4,0 8,0 14,0c4,0 6.10699,-0.91901 10,0c2.17624,0.51373 4,1 4,1l2,0" id="svg_13" fill-opacity="null" stroke-opacity="null" stroke-width="14.5" stroke="#000" fill="none"/>
  <path d="m113.25,139.57733c1,1 1.4588,2.69345 2,4c0.38269,0.92389 0.9176,2.38687 2,5c0.38269,0.92389 1.4588,2.69345 2,4c0.38269,0.92389 0.58578,0.58578 2,2c0.70709,0.70709 0,2 1,3c1,1 0.82376,3.48627 3,4c0.97324,0.22977 1.29291,1.29291 2,2c1.41422,1.41422 2,1 3,1c1,0 1,0 3,0c1,0 2.22836,1.14804 5,0c1.30655,-0.5412 4.08026,-2.31073 7,-3c2.17624,-0.51373 4.90634,-1.10339 6,-2c2.78833,-2.28589 4,-2 4,-3c0,-1 0,-4 0,-4c0,-1 0,-3 0,-4c0,0 0,-1 0,-3c0,-1 0,-1 0,-2c0,-2 0.70709,-2.29291 0,-3c-1.41422,-1.41422 -3,0 -3,-1l-1,-2l0,-1l0,0" id="svg_14" fill-opacity="null" stroke-opacity="null" stroke-width="14.5" stroke="#000" fill="none"/>
  <path d="m69.25,92.57733c-1,-1 -1.71021,-3.04291 -2,-4c-1.04483,-3.45084 -2.33197,-4.22937 -4,-8c-1.45865,-3.29733 -3.13065,-5.12872 -4,-8c-1.04483,-3.45084 -3,-4 -4,-7l0,-1l0,0" id="svg_17" fill-opacity="null" stroke-opacity="null" stroke-width="14.5" stroke="#000" fill="none"/>
  <path d="m136.25,81.57733c0,-1 0,-4 0,-9c0,-4 0.91901,-8.10699 0,-12c-1.0275,-4.35251 -2,-8 -3,-11l0,-2" id="svg_18" fill-opacity="null" stroke-opacity="null" stroke-width="14.5" stroke="#000" fill="none"/>
 </g>
</svg>
